<?xml version='1.0' encoding='UTF-8' standalone='no'?>
<svg xmlns="http://www.w3.org/2000/svg" version="1.1" width="297mm" height="210mm" viewBox="0 0 297 210">
  <rect x="10" y="10" width="277" height="190" fill="none" stroke="black" stroke-width="0.35"/>
  <rect x="177" y="170" width="110" height="30" fill="none" stroke="black" stroke-width="0.35"/>
  <line x1="177" y1="183" x2="287" y2="183" stroke="black" stroke-width="0.25"/>
  <line x1="177" y1="188" x2="287" y2="188" stroke="black" stroke-width="0.25"/>
  <line x1="177" y1="195" x2="287" y2="195" stroke="black" stroke-width="0.25"/>
  <line x1="220" y1="170" x2="220" y2="183" stroke="black" stroke-width="0.25"/>
  <line x1="262" y1="188" x2="262" y2="195" stroke="black" stroke-width="0.25"/>
  <text x="180" y="174" font-family="Liberation Sans Narrow" font-size="1.5" font-weight="bold">{{CONFIDENTIALITY}}</text>
  <text x="180" y="178" font-family="Liberation Sans Narrow" font-size="1.5">{{DRAWN_BY}}</text>
  <text x="180" y="182" font-family="Liberation Sans Narrow" font-size="1.5" font-weight="bold">{{COMPANY}}</text>
  <text x="180" y="187" font-family="Liberation Sans Narrow" font-size="1.5" font-weight="bold">File:</text>
  <text x="188" y="187" font-family="Liberation Sans Narrow" font-size="1.5">{{FILENAME}}</text>
  <text x="180" y="193" font-family="Liberation Sans Narrow" font-size="1.5" font-weight="bold">Title:</text>
  <text x="192" y="193" font-family="Liberation Sans Narrow" font-size="2.0" font-weight="bold">{{TITLE}}</text>
  <text x="264" y="191" font-family="Liberation Sans Narrow" font-size="1.5" font-weight="bold">Rev:</text>
  <text x="272" y="193" font-family="Liberation Sans Narrow" font-size="2.0" font-weight="bold">{{REV}}</text>
  <text x="180" y="199" font-family="Liberation Sans Narrow" font-size="1.5" font-weight="bold">Size:</text>
  <text x="188" y="199" font-family="Liberation Sans Narrow" font-size="1.5">A4</text>
  <text x="210" y="199" font-family="Liberation Sans Narrow" font-size="1.5" font-weight="bold">Date:</text>
  <text x="220" y="199" font-family="Liberation Sans Narrow" font-size="1.5">{{DATE}}</text>
  <rect id="board-characteristics" x="15" y="16.24" width="150" height="53.30" fill="none" stroke="none"/>
  <rect id="stackup-table" x="165" y="14.33" width="120" height="84.03" fill="none" stroke="none"/>
  <rect id="drill-map" x="15" y="69.54" width="150" height="125.46" fill="none" stroke="none"/>
  <rect id="fab-notes" x="177.74" y="69.54" width="102.60" height="87.52" fill="none" stroke="none"/>
</svg>
