<?xml version='1.0' encoding='UTF-8' standalone='no'?>
<svg xmlns="http://www.w3.org/2000/svg" version="1.1" width="297mm" height="210mm" viewBox="0 0 297 210">
  <rect x="10" y="10" width="277" height="190" fill="none" stroke="black" stroke-width="0.35"/>
  <rect x="177" y="170" width="110" height="30" fill="none" stroke="black" stroke-width="0.35"/>
  <line x1="177" y1="183" x2="287" y2="183" stroke="black" stroke-width="0.25"/>
  <line x1="177" y1="188" x2="287" y2="188" stroke="black" stroke-width="0.25"/>
  <line x1="177" y1="195" x2="287" y2="195" stroke="black" stroke-width="0.25"/>
  <line x1="220" y1="170" x2="220" y2="183" stroke="black" stroke-width="0.25"/>
  <line x1="262" y1="188" x2="262" y2="195" stroke="black" stroke-width="0.25"/>
  <text x="180" y="174" font-family="Liberation Sans Narrow" font-size="1.5" font-weight="bold">{{CONFIDENTIALITY}}</text>
  <text x="180" y="178" font-family="Liberation Sans Narrow" font-size="1.5">{{DRAWN_BY}}</text>
  <text x="180" y="182" font-family="Liberation Sans Narrow" font-size="1.5" font-weight="bold">{{COMPANY}}</text>
  <g transform="translate(238.5, 171) scale(0.0336)">
    <path style="fill:#000000" d="M 108.66667,326.82152 C 88.510011,324.45705 73.657297,319.61994 58.157801,310.37222 26.204879,291.30762 4.9551431,258.58791 0.65557366,221.832 -0.5366742,211.63978 -0.16323482,197.65046 1.5765016,187.33334 9.4605431,140.57877 46.333766,101.64433 92.444444,91.385861 102.91678,89.05603 106.5433,88.687613 119.11111,88.6768 c 15.74218,-0.01354 23.89973,1.240905 37.77778,5.809374 24.9423,8.210676 47.22952,25.268056 61.9639,47.423686 16.99838,25.55991 23.42467,57.2173 17.79901,87.68198 -5.80152,31.41708 -24.45588,59.71436 -51.09179,77.50249 -16.09559,10.74903 -33.36903,17.10013 -52.6684,19.3651 -4.97083,0.58338 -20.37564,0.81364 -24.22494,0.36209 z m 20.98732,-43.03918 c 11.31925,-1.60917 21.72794,-5.49984 31.2349,-11.67533 22.74894,-14.77713 36.19648,-40.71978 34.95814,-67.44034 -0.94435,-20.37722 -9.15875,-38.37234 -23.9548,-52.47733 -27.01724,-25.75539 -68.44483,-28.18946 -98.463502,-5.78521 -15.135818,11.29653 -25.467638,27.53818 -29.429037,46.26254 -1.354961,6.4045 -1.686435,18.63891 -0.696336,25.70117 4.031165,28.75386 24.322332,53.11523 51.840682,62.2394 4.246385,1.40796 11.920103,3.10502 15.967073,3.53116 4.03653,0.42503 14.45581,0.22496 18.54288,-0.35606 z m 164.12091,42.48422 c -3.25736,-1.03515 -6.12823,-3.53497 -7.30793,-6.36339 -0.61818,-1.48214 -0.68874,-17.62476 -0.68485,-156.66667 l 0.004,-155.0142777 1.04326,-2.2403846 C 287.9453,3.5861436 290.00054,1.5708983 292.31906,0.59931642 293.41067,0.14187209 296.88826,0 307.00957,0 h 13.26035 l 2.32191,1.1570585 c 1.27705,0.6363821 2.8124,1.8001162 3.41188,2.5860758 2.55042,3.3437806 2.44073,0.8310166 2.44073,55.9122027 v 50.654693 l 3.28753,-3.07018 c 10.30461,-9.623376 25.92262,-16.228033 43.36748,-18.339555 5.50388,-0.666188 16.52007,-0.556842 22.54445,0.223776 21.46264,2.781048 41.37329,12.654509 57.16254,28.346239 13.27486,13.19288 22.75445,29.9312 27.127,47.89874 2.83553,11.65169 2.68423,7.24258 2.84152,82.80538 0.16144,77.5521 0.42073,71.54216 -3.24471,75.2076 -3.12026,3.12026 -4.63468,3.3731 -19.19632,3.20489 -13.59528,-0.15704 -13.72802,-0.18207 -16.92741,-3.19223 -3.22506,-3.03432 -2.93536,3.60246 -3.20375,-73.39469 -0.23828,-68.35872 -0.25476,-69.38956 -1.17217,-73.33333 -2.80831,-12.07242 -8.13474,-21.64903 -16.47044,-29.61291 -10.44972,-9.9836 -22.55335,-15.14651 -37.03401,-15.79717 -20.02587,-0.89982 -38.68566,8.97909 -49.96017,26.45003 -3.57732,5.5434 -6.29051,12.14452 -8.06695,19.62672 -0.73546,3.09769 -0.80857,8.219 -1.03411,72.44444 l -0.2427,69.11111 -0.95929,1.77778 c -1.12249,2.08021 -2.86352,3.78965 -5.04071,4.94926 -1.40245,0.74697 -2.8241,0.83719 -14.44444,0.91658 -7.08889,0.0484 -13.39019,-0.0712 -14.00288,-0.26595 z m 250.66667,-0.003 c -3.49238,-1.1013 -6.76376,-4.22291 -7.57231,-7.22562 -0.29945,-1.11209 -0.39877,-25.18545 -0.2953,-71.57915 0.15231,-68.29082 0.17697,-70.0163 1.06902,-74.7924 4.58282,-24.53693 15.94868,-44.81714 33.69035,-60.11403 15.3984,-13.27652 33.90603,-21.330897 54.43716,-23.690631 5.88659,-0.676573 20.0077,-0.304494 25.77887,0.67925 13.48482,2.2986 27.5979,7.730246 38.45064,14.798351 7.61879,4.96192 17.59601,13.8427 22.72921,20.2314 l 1.35155,1.68212 3.91966,-4.42602 c 8.7348,-9.8632 19.14144,-17.6768 31.42068,-23.591529 14.07234,-6.778436 27.60704,-9.80246 43.7836,-9.782459 44.76757,0.05535 84.33753,31.281268 95.48613,75.351138 3.23688,12.7952 3.03319,7.43123 3.19516,84.14431 0.16424,77.79164 0.42287,71.76596 -3.2375,75.42633 -3.00662,3.00663 -4.56425,3.29177 -17.98182,3.29177 -12.99619,0 -14.86945,-0.31426 -17.83304,-2.99168 -3.59146,-3.24467 -3.24928,3.91762 -3.51975,-73.67499 -0.23828,-68.35872 -0.25476,-69.38956 -1.17217,-73.33333 -2.84259,-12.21977 -8.06246,-21.55558 -16.67284,-29.81963 -7.70741,-7.39739 -16.91685,-12.27206 -27.69109,-14.65723 -4.84687,-1.07299 -14.72455,-1.30284 -19.84709,-0.46184 -8.44868,1.38707 -15.45956,4.1651 -22.73534,9.00878 -10.4389,6.94946 -19.4049,18.92508 -22.94757,30.65039 -2.59543,8.59015 -2.4101,3.15514 -2.67297,78.39064 -0.23174,66.32408 -0.27489,69.17384 -1.06999,70.66667 -1.15961,2.17718 -2.86905,3.91821 -4.94926,5.0407 -1.7104,0.92294 -2.29154,0.9593 -15.33334,0.9593 -14.99802,0 -14.88788,0.0185 -18.14903,-3.04976 -3.2251,-3.03435 -2.93547,3.60274 -3.20283,-73.39469 l -0.24075,-69.33333 -1.0126,-4.44445 C 686.58035,154.1155 669.94268,137.39866 648,132.39767 c -4.95803,-1.12999 -13.80424,-1.55043 -18.73608,-0.89047 -18.91811,2.53152 -35.12023,14.07699 -43.86891,31.26056 -2.13454,4.19251 -3.84144,8.99965 -5.25079,14.7878 -0.69137,2.83941 -0.77926,9.14669 -1.00643,72.22222 l -0.2489,69.11111 -0.9593,1.77778 c -1.12249,2.08021 -2.86352,3.78965 -5.0407,4.94926 -1.40285,0.74718 -2.82088,0.8369 -14.44445,0.91386 -7.08888,0.0469 -13.39018,-0.0727 -14.00287,-0.26595 z M 110.44444,71.718701 C 106.647,71.322342 98.999494,69.706628 95.691298,68.601754 84.259691,64.783815 77.761084,58.531904 76.345741,49.990577 74.945289,41.539121 79.315587,33.543176 88.049462,28.577321 100.97148,21.230199 125.2554,19.61805 142.22222,24.980926 c 17.35615,5.485935 24.86726,17.802199 18.61415,30.522361 -3.6193,7.362447 -13.46365,13.057618 -26.61415,15.396871 -4.08362,0.726407 -19.55709,1.259077 -23.77778,0.818543 z"/>
  </g>
  <text x="180" y="187" font-family="Liberation Sans Narrow" font-size="1.5" font-weight="bold">File:</text>
  <text x="188" y="187" font-family="Liberation Sans Narrow" font-size="1.5">{{FILENAME}}</text>
  <text x="180" y="193" font-family="Liberation Sans Narrow" font-size="1.5" font-weight="bold">Title:</text>
  <text x="192" y="193" font-family="Liberation Sans Narrow" font-size="2.0" font-weight="bold">{{TITLE}}</text>
  <text x="264" y="191" font-family="Liberation Sans Narrow" font-size="1.5" font-weight="bold">Rev:</text>
  <text x="272" y="193" font-family="Liberation Sans Narrow" font-size="2.0" font-weight="bold">{{REV}}</text>
  <text x="180" y="199" font-family="Liberation Sans Narrow" font-size="1.5" font-weight="bold">Size:</text>
  <text x="188" y="199" font-family="Liberation Sans Narrow" font-size="1.5">A4</text>
  <text x="210" y="199" font-family="Liberation Sans Narrow" font-size="1.5" font-weight="bold">Date:</text>
  <text x="220" y="199" font-family="Liberation Sans Narrow" font-size="1.5">{{DATE}}</text>
</svg>
