<?xml version='1.0' encoding='UTF-8' standalone='no'?>
<svg xmlns="http://www.w3.org/2000/svg" version="1.1" width="297mm" height="210mm" viewBox="0 0 297 210">
  <rect x="10" y="10" width="277" height="190" fill="none" stroke="black" stroke-width="0.35"/>
  <rect x="177" y="170" width="110" height="30" fill="none" stroke="black" stroke-width="0.35"/>
  <line x1="177" y1="183" x2="287" y2="183" stroke="black" stroke-width="0.25"/>
  <line x1="177" y1="188" x2="287" y2="188" stroke="black" stroke-width="0.25"/>
  <line x1="177" y1="195" x2="287" y2="195" stroke="black" stroke-width="0.25"/>
  <line x1="220" y1="170" x2="220" y2="183" stroke="black" stroke-width="0.25"/>
  <line x1="262" y1="188" x2="262" y2="195" stroke="black" stroke-width="0.25"/>
  <text x="180" y="174" font-family="Liberation Sans Narrow" font-size="2.2" font-weight="bold">{{CONFIDENTIALITY}}</text>
  <text x="180" y="177.5" font-family="Liberation Sans Narrow" font-size="2.2">{{DRAWN_BY}}</text>
  <text x="180" y="181.2" font-family="Liberation Sans Narrow" font-size="2.5" font-weight="bold">{{COMPANY}}</text>
  <text x="180" y="186.5" font-family="Liberation Sans Narrow" font-size="2.0" font-weight="bold">File:</text>
  <text x="188" y="186.5" font-family="Liberation Sans Narrow" font-size="2.5">{{FILENAME}}</text>
  <text x="180" y="193" font-family="Liberation Sans Narrow" font-size="2.0" font-weight="bold">Title:</text>
  <text x="192" y="193.5" font-family="Liberation Sans Narrow" font-size="4.0" font-weight="bold">{{TITLE}}</text>
  <text x="264" y="191" font-family="Liberation Sans Narrow" font-size="2.0" font-weight="bold">Rev:</text>
  <text x="272" y="193.5" font-family="Liberation Sans Narrow" font-size="4.0" font-weight="bold">{{REV}}</text>
  <text x="180" y="198.5" font-family="Liberation Sans Narrow" font-size="2.0" font-weight="bold">Size:</text>
  <text x="188" y="198.5" font-family="Liberation Sans Narrow" font-size="2.5">A4</text>
  <text x="210" y="198.5" font-family="Liberation Sans Narrow" font-size="2.0" font-weight="bold">Date:</text>
  <text x="220" y="198.5" font-family="Liberation Sans Narrow" font-size="2.5">{{DATE}}</text>
  <rect x="15" y="15" width="130" height="100" fill="none" stroke="none" id="front-view"/>
  <rect x="150" y="15" width="130" height="100" fill="none" stroke="none" id="back-view"/>
  <rect x="15" y="125" width="130" height="60" fill="none" stroke="none" id="render-3d"/>
  <rect x="150" y="125" width="135" height="60" fill="none" stroke="none" id="assembly-notes"/>
</svg>
